<?xml version="1.0" encoding="UTF-8"?>
<svg width="1920" height="1080" viewBox="0 0 1920 1080" fill="none" xmlns="http://www.w3.org/2000/svg">
<defs>
<linearGradient id="paint0_linear" x1="0" y1="0" x2="1920" y2="1080" gradientUnits="userSpaceOnUse">
<stop stop-color="#047857"/>
<stop offset="1" stop-color="#0F766E"/>
</linearGradient>
</defs>
<rect width="1920" height="1080" fill="url(#paint0_linear)"/>
<g opacity="0.7">
<path d="M480 180L720 300L720 540L480 420L480 180Z" fill="#047857"/>
<path d="M720 300L960 420L960 660L720 540L720 300Z" fill="#0F766E"/>
<path d="M960 420L1200 540L1200 780L960 660L960 420Z" fill="#047857"/>
<path d="M1200 540L1440 660L1440 900L1200 780L1200 540Z" fill="#0F766E"/>
<path d="M1440 660L1680 780L1680 1020L1440 900L1440 660Z" fill="#047857"/>
<path d="M240 60L480 180L480 420L240 300L240 60Z" fill="#0F766E"/>
<path d="M480 180L720 300L720 540L480 420L480 180Z" fill="#047857"/>
<path d="M720 300L960 420L960 660L720 540L720 300Z" fill="#0F766E"/>
<path d="M960 420L1200 540L1200 780L960 660L960 420Z" fill="#047857"/>
<path d="M1200 540L1440 660L1440 900L1200 780L1200 540Z" fill="#0F766E"/>
<path d="M0 360L240 480L240 720L0 600L0 360Z" fill="#047857"/>
<path d="M240 480L480 600L480 840L240 720L240 480Z" fill="#0F766E"/>
<path d="M480 600L720 720L720 960L480 840L480 600Z" fill="#047857"/>
<path d="M720 720L960 840L960 1080L720 960L720 720Z" fill="#0F766E"/>
<path d="M1680 180L1920 300L1920 540L1680 420L1680 180Z" fill="#0F766E"/>
<path d="M1440 60L1680 180L1680 420L1440 300L1440 60Z" fill="#047857"/>
<path d="M1200 0L1440 120L1440 360L1200 240L1200 0Z" fill="#0F766E"/>
<path d="M960 0L1200 120L1200 360L960 240L960 0Z" fill="#047857"/>
<path d="M720 0L960 120L960 360L720 240L720 0Z" fill="#0F766E"/>
<path d="M480 0L720 120L720 360L480 240L480 0Z" fill="#047857"/>
<path d="M240 0L480 120L480 360L240 240L240 0Z" fill="#0F766E"/>
<path d="M0 0L240 120L240 360L0 240L0 0Z" fill="#047857"/>
<path d="M1680 420L1920 540L1920 780L1680 660L1680 420Z" fill="#047857"/>
<path d="M1680 780L1920 900L1920 1140L1680 1020L1680 780Z" fill="#0F766E"/>
</g>
</svg>