<?xml version="1.0" encoding="UTF-8"?>
<svg width="1920" height="1080" viewBox="0 0 1920 1080" fill="none" xmlns="http://www.w3.org/2000/svg">
<defs>
<linearGradient id="paint0_linear" x1="0" y1="0" x2="1920" y2="1080" gradientUnits="userSpaceOnUse">
<stop stop-color="#0369A1"/>
<stop offset="1" stop-color="#4338CA"/>
</linearGradient>
<linearGradient id="paint1_linear" x1="960" y1="0" x2="960" y2="1080" gradientUnits="userSpaceOnUse">
<stop stop-color="#0369A1" stop-opacity="0"/>
<stop offset="0.5" stop-color="#0369A1" stop-opacity="0.3"/>
<stop offset="1" stop-color="#4338CA" stop-opacity="0"/>
</linearGradient>
<filter id="filter0_f" x="-200" y="-200" width="2320" height="1480" filterUnits="userSpaceOnUse" color-interpolation-filters="sRGB">
<feFlood flood-opacity="0" result="BackgroundImageFix"/>
<feBlend mode="normal" in="SourceGraphic" in2="BackgroundImageFix" result="shape"/>
<feGaussianBlur stdDeviation="100" result="effect1_foregroundBlur"/>
</filter>
</defs>
<rect width="1920" height="1080" fill="url(#paint0_linear)"/>
<g filter="url(#filter0_f)">
<path d="M180 960C180 609.487 469.487 320 820 320C1170.51 320 1460 609.487 1460 960C1460 1310.51 1170.51 1600 820 1600C469.487 1600 180 1310.51 180 960Z" fill="#0EA5E9" fill-opacity="0.15"/>
<path d="M580 460C580 303.431 703.431 180 860 180C1016.57 180 1140 303.431 1140 460C1140 616.569 1016.57 740 860 740C703.431 740 580 616.569 580 460Z" fill="#6366F1" fill-opacity="0.15"/>
<path d="M1320 560C1320 403.431 1443.43 280 1600 280C1756.57 280 1880 403.431 1880 560C1880 716.569 1756.57 840 1600 840C1443.43 840 1320 716.569 1320 560Z" fill="#3B82F6" fill-opacity="0.15"/>
<path d="M20 560C20 403.431 143.431 280 300 280C456.569 280 580 403.431 580 560C580 716.569 456.569 840 300 840C143.431 840 20 716.569 20 560Z" fill="#0EA5E9" fill-opacity="0.15"/>
<path d="M1120 760C1120 603.431 1243.43 480 1400 480C1556.57 480 1680 603.431 1680 760C1680 916.569 1556.57 1040 1400 1040C1243.43 1040 1120 916.569 1120 760Z" fill="#6366F1" fill-opacity="0.15"/>
</g>
<rect width="1920" height="1080" fill="url(#paint1_linear)"/>
</svg>