<?xml version="1.0" encoding="UTF-8"?>
<svg width="1920" height="1080" viewBox="0 0 1920 1080" fill="none" xmlns="http://www.w3.org/2000/svg">
<defs>
<linearGradient id="paint0_linear" x1="0" y1="0" x2="1920" y2="1080" gradientUnits="userSpaceOnUse">
<stop stop-color="#0E7490"/>
<stop offset="1" stop-color="#0369A1"/>
</linearGradient>
</defs>
<rect width="1920" height="1080" fill="url(#paint0_linear)"/>
<circle cx="300" cy="200" r="15" fill="#0E7490" opacity="0.6"/>
<circle cx="1620" cy="880" r="20" fill="#0E7490" opacity="0.6"/>
<circle cx="960" cy="540" r="25" fill="#0E7490" opacity="0.6"/>
<circle cx="600" cy="800" r="12" fill="#0E7490" opacity="0.6"/>
<circle cx="1320" cy="280" r="18" fill="#0E7490" opacity="0.6"/>

<line x1="315" y1="200" x2="588" y2="788" stroke="#0E7490" stroke-width="2" opacity="0.4"/>
<line x1="315" y1="200" x2="947" y2="528" stroke="#0E7490" stroke-width="2" opacity="0.4"/>
<line x1="1605" y1="880" x2="972" y2="552" stroke="#0E7490" stroke-width="2" opacity="0.4"/>
<line x1="1605" y1="880" x2="1332" y2="292" stroke="#0E7490" stroke-width="2" opacity="0.4"/>
<line x1="612" y1="800" x2="948" y2="552" stroke="#0E7490" stroke-width="2" opacity="0.4"/>
<line x1="1332" y1="280" x2="972" y2="528" stroke="#0E7490" stroke-width="2" opacity="0.4"/>

<circle cx="300" cy="200" r="5" fill="#0369A1"/>
<circle cx="1620" cy="880" r="7" fill="#0369A1"/>
<circle cx="960" cy="540" r="8" fill="#0369A1"/>
<circle cx="600" cy="800" r="4" fill="#0369A1"/>
<circle cx="1320" cy="280" r="6" fill="#0369A1"/>

<line x1="100" y1="900" x2="500" y2="100" stroke="#0E7490" stroke-width="1" opacity="0.2"/>
<line x1="1820" y1="100" x2="1420" y2="900" stroke="#0E7490" stroke-width="1" opacity="0.2"/>
<line x1="50" y1="500" x2="1870" y2="500" stroke="#0E7490" stroke-width="1" opacity="0.2"/>
<line x1="1870" y1="1000" x2="50" y2="1000" stroke="#0E7490" stroke-width="1" opacity="0.2"/>

</svg>